<svg width="38" height="33" viewBox="0 0 38 33" fill="none" xmlns="http://www.w3.org/2000/svg">
<path d="M21.2231 3.48159L18.5128 6.20721L15.8024 3.50455C14.0954 2.01804 11.8877 1.23486 9.62552 1.31322C7.3633 1.39159 5.21515 2.32566 3.61504 3.92674C2.01494 5.52782 1.08217 7.67654 1.00517 9.93881C0.928183 12.2011 1.71271 14.4082 3.20026 16.1144L5.91057 18.8247L12.227 25.1411L18.5128 31.4728L24.8292 25.1564L31.1456 18.84L33.8253 16.1144C35.441 14.4271 36.3316 12.1741 36.3063 9.83807C36.281 7.50206 35.3418 5.26886 33.6899 3.61696C32.038 1.96505 29.8048 1.02583 27.4688 1.00052C25.1328 0.975222 22.8798 1.86585 21.1924 3.48159H21.2231Z" stroke="#F2CC8F" stroke-width="2"/>
</svg>
