<svg width="92" height="92" viewBox="0 0 92 92" fill="none" xmlns="http://www.w3.org/2000/svg">
<path d="M71 30.9997C71 28.4406 70.0235 25.8815 68.071 23.929C66.1185 21.9763 63.559 21 61 21M61 61C77.5685 61 91 47.5685 91 31C91 14.4314 77.5685 1 61 1C44.4315 1 31 14.4314 31 31C31 32.3684 31.0916 33.7154 31.2691 35.0352C31.5609 37.206 31.7068 38.2915 31.6086 38.978C31.5062 39.6935 31.376 40.0785 31.0234 40.7095C30.685 41.315 30.0885 41.9115 28.8956 43.1045L3.34315 68.657C2.4784 69.5215 2.046 69.954 1.7368 70.4585C1.46265 70.906 1.26065 71.3935 1.13815 71.904C1 72.4795 1 73.091 1 74.3135V83C1 85.8005 1 87.2005 1.54495 88.27C2.02435 89.211 2.78925 89.9755 3.73005 90.455C4.7996 91 6.19975 91 9 91H21V81H31V71H41L48.8955 63.1045C50.0885 61.9115 50.685 61.315 51.2905 60.9765C51.9215 60.624 52.3065 60.4935 53.022 60.3915C53.7085 60.293 54.794 60.439 56.965 60.731C58.2845 60.9085 59.6315 61 61 61Z" stroke="black" stroke-width="4" stroke-linecap="round" stroke-linejoin="round"/>
</svg>
