<svg width="85" height="85" viewBox="0 0 85 85" fill="none" xmlns="http://www.w3.org/2000/svg">
<path d="M83.6469 71.8763L68.7216 56.951L68.7206 56.95L63.3857 51.6151C61.5836 49.8128 58.6506 49.8122 56.8479 51.6151L56.1939 52.269L53.9409 50.016C58.3548 44.7238 61.0144 37.92 61.0144 30.506C61.014 13.685 47.329 0 30.5078 0C13.6866 0 0.00195312 13.685 0.00195312 30.506C0.00195312 47.3271 13.6866 61.0121 30.5078 61.0121C37.9217 61.0121 44.7256 58.3525 50.0178 53.9388L52.2708 56.1916L51.6167 56.8457C49.8148 58.6482 49.8148 61.581 51.617 63.3836L71.8781 83.6446C73.6845 85.4514 76.6094 85.4519 78.4163 83.6448L83.6468 78.4143C85.4495 76.6119 85.4495 73.6791 83.6469 71.8763ZM30.5078 55.4643C16.7458 55.4643 5.54953 44.2681 5.54953 30.506C5.54953 16.744 16.7458 5.54774 30.5078 5.54774C44.2699 5.54774 55.4663 16.744 55.4663 30.506C55.4663 44.2681 44.2699 55.4643 30.5078 55.4643ZM56.1938 60.1148L60.1165 56.192L62.8372 58.9126L58.9144 62.8354L56.1938 60.1148ZM75.1473 79.0681L62.8372 66.758L66.76 62.8353L79.0701 75.1453L75.1473 79.0681Z" fill="#3D405B"/>
<path d="M30.5072 11.0957C28.9752 11.0957 27.7333 12.3376 27.7333 13.8696C27.7333 15.4016 28.9752 16.6436 30.5072 16.6436C38.1514 16.6436 44.3704 22.862 44.3704 30.5059C44.3704 32.0379 45.6123 33.2798 47.1443 33.2798C48.6763 33.2798 49.9183 32.0379 49.9183 30.5059C49.9183 19.803 41.2104 11.0957 30.5072 11.0957Z" fill="#3D405B"/>
</svg>
