<svg width="86" height="86" viewBox="0 0 86 86" fill="none" xmlns="http://www.w3.org/2000/svg">
<path d="M67.2167 57.2557C64.7496 57.2499 62.3057 57.7343 60.0263 58.6809C57.7469 59.6275 55.677 61.0177 53.9362 62.771L43.1886 73.5501C41.5295 75.2237 39.5559 76.5507 37.3821 77.4542C35.2083 78.3577 32.8773 78.8199 30.5242 78.8139H11.2036C10.4086 78.815 9.63119 78.5796 8.96977 78.1373C8.30834 77.6951 7.79267 77.0659 7.48807 76.3294C7.18346 75.593 7.10362 74.7825 7.25867 74.0005C7.41371 73.2186 7.79666 72.5003 8.35901 71.9368L9.74188 70.5499C11.7379 71.5263 13.9888 71.8507 16.1782 71.4776C18.3676 71.1044 20.3853 70.0524 21.9476 68.4696L44.6108 45.7581C46.1231 46.1657 47.6751 46.4066 49.2395 46.4767C49.5476 46.4767 49.8593 46.4767 50.1745 46.4767C55.8785 46.4722 61.3483 44.2008 65.386 40.1601L68.9686 36.5671C71.0721 34.4536 72.7156 31.9254 73.7954 29.1424C74.8751 26.3594 75.3675 23.3821 75.2416 20.3985C75.1221 17.4018 74.3747 14.4639 73.0483 11.776C71.7218 9.08807 69.8459 6.71037 67.5427 4.7976C63.2396 1.37945 57.8237 -0.313324 52.3463 0.0478613C46.8688 0.409047 41.7205 2.79842 37.9007 6.7522L35.633 9.03018C32.8922 11.7691 30.8957 15.1658 29.8334 18.8971C28.7712 22.6284 28.6785 26.5702 29.5641 30.3476L6.75045 53.2279C5.19167 54.8017 4.15629 56.8205 3.78623 59.0075C3.41616 61.1945 3.7295 63.4428 4.68332 65.4442L3.29329 66.8383C1.72303 68.4059 0.652498 70.4059 0.217567 72.5847C-0.217364 74.7635 0.002909 77.0228 0.850433 79.0758C1.69796 81.1288 3.13452 82.883 4.97781 84.1158C6.8211 85.3486 8.98802 86.0044 11.2036 85.9999H30.5242C33.8187 86.0089 37.0821 85.3621 40.1256 84.0971C43.169 82.8322 45.9319 80.9741 48.2543 78.6306L59.0019 67.8516C60.6267 66.2222 62.6968 65.1126 64.9504 64.6631C67.204 64.2136 69.5398 64.4443 71.6627 65.3262C73.7855 66.208 75.5999 67.7013 76.8765 69.6173C78.1532 71.5333 78.8347 73.7859 78.8349 76.0904V85.9999H86V76.0904C85.9934 71.0965 84.0122 66.3092 80.4909 62.7783C76.9697 59.2475 72.196 57.2614 67.2167 57.2557ZM40.7058 14.0963L42.9736 11.8184C45.9162 8.8529 49.9081 7.17398 54.0795 7.14743C57.3089 7.11586 60.445 8.2322 62.932 10.2985C64.4706 11.5728 65.7247 13.1574 66.6129 14.9494C67.501 16.7415 68.0034 18.7009 68.0873 20.7003C68.17 22.6891 67.8412 24.6736 67.1217 26.5287C66.4022 28.3838 65.3074 30.0694 63.9064 31.4794L60.3239 35.0724C58.9163 36.4841 57.2309 37.5863 55.3752 38.3085C53.5194 39.0308 51.5339 39.3574 49.5453 39.2675C47.5567 39.1776 45.6086 38.6731 43.8251 37.7863C42.0417 36.8995 40.462 35.6497 39.1868 34.1167C36.9228 31.184 35.8241 27.5132 36.1033 23.8149C36.3826 20.1165 38.02 16.6536 40.6987 14.0963H40.7058ZM11.8162 58.3085L32.7239 37.336C33.0499 37.8031 33.3115 38.3061 33.6805 38.7481C34.8696 40.1569 36.231 41.41 37.7323 42.4776L16.8819 63.389C16.2007 64.0447 15.2932 64.4108 14.349 64.4108C13.4049 64.4108 12.4973 64.0447 11.8162 63.389C11.1445 62.7152 10.7673 61.8015 10.7673 60.8488C10.7673 59.896 11.1445 58.9823 11.8162 58.3085Z" fill="#3D405B"/>
</svg>
