<svg width="40" height="33" viewBox="0 0 40 33" fill="none" xmlns="http://www.w3.org/2000/svg">
<path d="M28.9809 0.000156974C26.5322 0.000156974 24.1439 0.933895 22.256 2.62943C22.1703 2.70632 22.1023 2.8006 22.0561 2.906C22.0344 2.95515 22.013 2.99565 21.9904 3.02988L19.3509 7.01645C19.172 7.28668 19.172 7.63768 19.3509 7.90799L21.9904 11.8946C22.1698 12.1655 22.1698 12.5154 21.9905 12.7862L19.3509 16.7731C19.172 17.0433 19.172 17.3943 19.3509 17.6646L21.9904 21.6513C22.1698 21.9222 22.1698 22.2721 21.9904 22.5428L19.3507 26.5303C19.1719 26.8005 19.1719 27.1515 19.3508 27.4218L21.6868 30.9505C21.8415 31.1842 22.0982 31.3123 22.3608 31.3123C22.4975 31.3123 22.6359 31.2776 22.7624 31.2049C25.5588 29.5989 29.6157 26.9929 33.0625 23.698C37.3778 19.5728 39.5659 15.4827 39.5659 11.5411C39.5659 5.17741 34.8175 0.000156974 28.9809 0.000156974ZM22.6124 29.423L20.9924 26.9758L23.337 23.4341C23.8748 22.6218 23.8748 21.572 23.3369 20.7596L20.9925 17.2186L23.337 13.6776C23.8748 12.8652 23.8748 11.8154 23.3369 11.003L20.9925 7.4621L23.3368 3.9215C23.3776 3.85991 23.4156 3.79585 23.4514 3.72823C25.0233 2.36422 26.9808 1.61501 28.981 1.61501C33.927 1.61509 37.951 6.06795 37.951 11.5411C37.9509 19.3822 27.7081 26.4123 22.6124 29.423Z" fill="#3D405B"/>
<path d="M17.414 27.4215C17.2347 27.1507 17.2347 26.8008 17.414 26.5301L20.0536 22.5426C20.2324 22.2724 20.2324 21.9215 20.0535 21.6512L17.414 17.6644C17.2346 17.3935 17.2346 17.0436 17.4139 16.7728L20.0535 12.7859C20.2324 12.5157 20.2324 12.1647 20.0535 11.8944L17.414 7.90768C17.2346 7.6369 17.2346 7.28699 17.414 7.01621L18.7164 5.04913C18.9072 4.76096 18.8934 4.38323 18.6821 4.10975C16.6644 1.49794 13.713 0 10.5849 0C4.74836 0.000154554 0 5.17741 0 11.5411C0 16.0143 2.79526 20.65 8.30821 25.319C12.5244 28.8899 17.081 31.4073 18.8443 32.3241C18.9624 32.3854 19.09 32.4151 19.2164 32.4151C19.4399 32.4151 19.6598 32.3224 19.817 32.1476C20.0632 31.8741 20.0933 31.4688 19.8901 31.1618L17.414 27.4215ZM9.35183 24.0866C4.21793 19.7386 1.61494 15.5176 1.61494 11.5411C1.61494 6.06795 5.63883 1.61509 10.5849 1.61509C13.0288 1.61509 15.3524 2.7159 17.041 4.65455L16.0675 6.12482C15.5295 6.93731 15.5295 7.98704 16.0675 8.79946L18.4119 12.3404L16.0674 15.8814C15.5296 16.6938 15.5296 17.7436 16.0675 18.556L18.4119 22.0971L16.0674 25.6387C15.5297 26.4511 15.5297 27.5007 16.0674 28.313L16.7068 29.2789C14.6261 28.0387 11.922 26.2633 9.35183 24.0866Z" fill="#3D405B"/>
</svg>
