<svg width="32" height="25" viewBox="0 0 195 150" fill="none" xmlns="http://www.w3.org/2000/svg">
<path d="M6.435 77.373L14.547 77.607C15.691 77.607 16.796 77.23 17.862 76.476L18.915 77.88C18.395 78.478 17.979 78.933 17.667 79.245C17.355 79.531 16.887 79.817 16.263 80.103C15.665 80.389 14.989 80.532 14.235 80.532L6.942 80.22C3.692 80.22 2.106 80.259 2.184 80.337C1.222 80.311 0.741 79.882 0.741 79.05C0.819 78.53 1.17 77.672 1.794 76.476C2.418 75.254 3.263 73.057 4.329 69.885C2.717 69.885 1.274 69.404 0 68.442L0.819 66.999C1.937 67.727 3.302 68.091 4.914 68.091C6.422 64.399 8.333 61.63 10.647 59.784C12.961 57.938 15.379 57.015 17.901 57.015C19.097 57.015 20.059 57.327 20.787 57.951C21.515 58.549 21.879 59.355 21.879 60.369C21.879 62.553 20.436 64.607 17.55 66.531C14.69 68.429 11.427 69.495 7.761 69.729C6.565 73.525 5.226 76.112 3.744 77.49C4.394 77.412 5.291 77.373 6.435 77.373ZM15.756 59.121C14.144 59.121 12.649 59.94 11.271 61.578C9.893 63.216 8.905 65.335 8.307 67.935C10.907 67.753 13.182 66.973 15.132 65.595C17.082 64.217 18.057 62.774 18.057 61.266C18.057 60.668 17.836 60.161 17.394 59.745C16.952 59.329 16.406 59.121 15.756 59.121Z" fill="white"/>
<path d="M33.7761 69.417C34.4521 70.535 34.7901 71.77 34.7901 73.122C34.7901 75.228 34.0621 77.113 32.6061 78.777C31.1501 80.415 29.4341 81.234 27.4581 81.234C25.9501 81.234 24.7671 80.805 23.9091 79.947C23.0771 79.063 22.6611 77.854 22.6611 76.32C22.6611 73.85 23.6231 71.64 25.5471 69.69C27.4711 67.714 29.6291 66.726 32.0211 66.726C32.4631 66.726 32.7751 66.739 32.9571 66.765L33.0741 68.052C30.9941 68.052 29.2651 68.65 27.8871 69.846C26.5091 71.042 25.8201 72.576 25.8201 74.448C25.8201 75.566 26.0931 76.476 26.6391 77.178C27.1851 77.854 27.9781 78.192 29.0181 78.192C30.0841 78.192 30.9291 77.724 31.5531 76.788C32.1771 75.852 32.4891 74.76 32.4891 73.512C32.4891 72.238 32.2421 71.081 31.7481 70.041L33.7761 69.417Z" fill="white"/>
<path d="M54.4483 56.781L63.6913 57.054C64.1593 57.054 64.7443 56.95 65.4463 56.742C66.1743 56.508 66.6553 56.391 66.8893 56.391C67.1233 56.391 67.3053 56.469 67.4353 56.625C67.5913 56.755 67.6693 56.924 67.6693 57.132C67.6693 57.678 67.4223 58.146 66.9283 58.536C66.4343 58.9 65.7843 59.16 64.9783 59.316C63.4703 59.654 62.1313 59.823 60.9613 59.823C59.3753 60.915 57.8283 64.061 56.3203 69.261C58.8943 69.261 60.4933 69.3 61.1173 69.378L61.0393 71.211C60.6493 71.237 60.0643 71.25 59.2843 71.25L55.7353 71.133C54.2793 75.579 52.3163 79.115 49.8463 81.741C47.3763 84.367 44.7633 85.68 42.0073 85.68C40.3173 85.68 38.9523 85.173 37.9123 84.159C36.8723 83.145 36.3523 81.806 36.3523 80.142C36.3523 77.464 37.9513 75.033 41.1493 72.849C44.3473 70.639 48.2863 69.469 52.9663 69.339C54.5523 64.347 56.4113 61.175 58.5433 59.823L52.2643 59.589C49.6383 59.589 47.6753 59.927 46.3753 60.603C45.1013 61.279 44.4643 62.176 44.4643 63.294C44.4643 63.892 44.7113 64.399 45.2053 64.815C45.6993 65.205 46.1933 65.4 46.6873 65.4C47.1813 65.4 47.5453 65.387 47.7793 65.361C48.0393 65.309 48.3513 65.218 48.7153 65.088C49.1053 64.932 49.3783 64.828 49.5343 64.776C50.0803 64.594 50.7433 64.308 51.5233 63.918L52.3423 64.932C50.3663 66.908 48.2083 67.896 45.8683 67.896C44.8283 67.896 43.9703 67.571 43.2943 66.921C42.6183 66.271 42.2803 65.452 42.2803 64.464C42.2803 62.306 43.3853 60.486 45.5953 59.004C47.8053 57.522 50.7563 56.781 54.4483 56.781ZM48.9883 78.582C50.3923 76.398 51.5103 73.954 52.3423 71.25C49.1183 71.51 46.2713 72.537 43.8013 74.331C41.3573 76.125 40.1353 78.049 40.1353 80.103C40.1353 80.909 40.4083 81.572 40.9543 82.092C41.5263 82.612 42.2673 82.872 43.1773 82.872C44.0873 82.872 45.0753 82.482 46.1413 81.702C47.2073 80.948 48.1563 79.908 48.9883 78.582Z" fill="white"/>
<path d="M73.2734 64.464C71.8174 64.464 71.0894 63.879 71.0894 62.709C71.0894 62.059 71.2714 61.513 71.6354 61.071C71.9994 60.629 72.4674 60.408 73.0394 60.408C73.6114 60.408 74.0794 60.577 74.4434 60.915C74.8074 61.253 74.9894 61.695 74.9894 62.241C74.9894 62.787 74.8334 63.294 74.5214 63.762C74.2094 64.23 73.7934 64.464 73.2734 64.464ZM72.7664 75.969L73.5464 76.632C72.9224 77.828 72.0904 78.855 71.0504 79.713C70.0364 80.545 69.1134 80.961 68.2814 80.961C66.8254 80.961 66.0974 79.947 66.0974 77.919C66.0974 75.397 67.1374 72.108 69.2174 68.052C69.6854 67.168 69.9584 66.648 70.0364 66.492L71.7134 67.506C71.1674 68.494 70.4914 70.067 69.6854 72.225C68.9054 74.383 68.5154 75.774 68.5154 76.398C68.5154 76.996 68.6454 77.425 68.9054 77.685C69.1654 77.945 69.4774 78.075 69.8414 78.075C70.5434 78.075 71.5184 77.373 72.7664 75.969Z" fill="white"/>
<path d="M108.18 59.55C110.312 58.094 111.768 57.21 112.548 56.898C113.328 56.56 114.238 56.391 115.278 56.391C116.344 56.391 117.163 56.755 117.735 57.483C118.307 58.211 118.593 59.251 118.593 60.603C118.593 63.021 117.813 65.621 116.253 68.403C114.693 71.185 112.743 73.525 110.403 75.423C108.063 77.295 105.853 78.231 103.773 78.231C103.253 78.231 102.655 78.205 101.979 78.153C100.705 80.857 99.5482 82.898 98.5082 84.276C97.4682 85.654 96.4282 86.343 95.3882 86.343C94.7382 86.343 94.2312 86.109 93.8672 85.641C93.5032 85.173 93.3212 84.523 93.3212 83.691C93.3212 81.013 94.5562 77.438 97.0262 72.966C99.4962 68.468 102.213 64.867 105.177 62.163C105.593 60.447 105.801 59.199 105.801 58.419C105.801 57.613 105.775 57.002 105.723 56.586L108.531 56.118C108.531 56.3 108.414 57.444 108.18 59.55ZM99.2492 75.345L100.341 75.891C101.979 72.693 103.357 69.105 104.475 65.127C102.083 68.117 100.12 71.159 98.5862 74.253C97.0522 77.347 96.2852 79.726 96.2852 81.39C96.2852 81.884 96.4412 82.131 96.7532 82.131C96.9872 82.131 97.4032 81.65 98.0012 80.688C98.5992 79.7 99.1062 78.699 99.5222 77.685C99.1842 77.529 98.8592 77.295 98.5472 76.983L99.2492 75.345ZM102.798 76.437L103.539 76.476C106.061 76.476 108.427 75.15 110.637 72.498C111.885 70.964 112.938 69.209 113.796 67.233C114.68 65.257 115.122 63.58 115.122 62.202C115.122 61.448 114.914 60.85 114.498 60.408C114.108 59.966 113.562 59.745 112.86 59.745C111.586 59.745 109.896 60.447 107.79 61.851C107.322 65.361 105.658 70.223 102.798 76.437Z" fill="white"/>
<path d="M126.245 77.256L127.064 77.919C126.18 79.297 125.413 80.298 124.763 80.922C124.139 81.52 123.437 81.819 122.657 81.819C121.877 81.819 121.24 81.507 120.746 80.883C120.252 80.259 120.005 79.479 120.005 78.543C120.005 76.723 121.201 72.81 123.593 66.804C125.985 60.772 128.442 55.468 130.964 50.892L132.68 51.828C130.132 56.768 127.831 61.682 125.777 66.57C123.723 71.432 122.696 74.929 122.696 77.061C122.696 78.283 123.151 78.894 124.061 78.894C124.789 78.894 125.517 78.348 126.245 77.256Z" fill="white"/>
<path d="M147.48 77.061L148.377 77.724C148.013 78.504 147.337 79.245 146.349 79.947C145.387 80.649 144.503 81 143.697 81C142.163 81 141.396 80.194 141.396 78.582C141.396 77.828 141.591 76.931 141.981 75.891L140.538 77.373C139.134 78.803 137.912 79.765 136.872 80.259C135.858 80.753 134.857 81 133.869 81C132.881 81 132.127 80.727 131.607 80.181C131.113 79.609 130.866 78.829 130.866 77.841C130.866 76.021 131.568 74.227 132.972 72.459C134.376 70.665 136.17 69.209 138.354 68.091C140.538 66.973 142.722 66.401 144.906 66.375L144.984 67.662L143.346 68.013C140.98 68.533 138.887 69.573 137.067 71.133C135.273 72.693 134.376 74.253 134.376 75.813C134.376 77.347 135 78.114 136.248 78.114C137.418 78.114 138.861 77.295 140.577 75.657C142.293 74.019 143.723 72.095 144.867 69.885L146.505 70.86C144.893 74.11 144.087 76.177 144.087 77.061C144.087 77.425 144.204 77.737 144.438 77.997C144.698 78.231 144.945 78.348 145.179 78.348C145.439 78.348 145.608 78.335 145.686 78.309C145.764 78.283 145.842 78.257 145.92 78.231C145.998 78.179 146.089 78.114 146.193 78.036C146.323 77.958 146.427 77.88 146.505 77.802C146.609 77.724 146.765 77.607 146.973 77.451C147.181 77.295 147.35 77.165 147.48 77.061Z" fill="white"/>
<path d="M165.059 78.543L165.176 79.557C165.072 79.635 163.863 80.103 161.549 80.961C161.237 82.677 160.834 84.367 160.34 86.031C159.872 87.721 159.391 88.995 158.897 89.853C158.429 90.737 157.87 91.608 157.22 92.466C155.92 94.182 154.165 95.04 151.955 95.04C150.863 95.04 149.992 94.702 149.342 94.026C148.692 93.35 148.367 92.427 148.367 91.257C148.367 86.759 152.137 83.145 159.677 80.415L161.783 73.005C159.547 76.359 157.532 78.426 155.738 79.206C154.854 79.622 153.918 79.83 152.93 79.83C151.968 79.83 151.188 79.518 150.59 78.894C150.018 78.27 149.732 77.36 149.732 76.164C149.732 74.968 150.135 73.304 150.941 71.172C151.773 69.014 152.696 67.207 153.71 65.751L155.621 66.57C155.543 66.648 155.179 67.337 154.529 68.637C153.385 71.003 152.813 72.758 152.813 73.902C152.813 75.046 153.034 75.813 153.476 76.203C153.918 76.593 154.568 76.788 155.426 76.788C156.284 76.788 157.246 76.281 158.312 75.267C159.404 74.227 161.081 72.186 163.343 69.144L164.747 69.963C164.539 70.821 164.071 72.381 163.343 74.643C162.641 76.879 162.16 78.595 161.9 79.791L165.059 78.543ZM159.443 81.585C157.805 82.339 156.362 83.197 155.114 84.159C152.774 85.927 151.604 87.643 151.604 89.307C151.604 89.931 151.786 90.438 152.15 90.828C152.514 91.218 152.969 91.413 153.515 91.413C156.115 91.413 158.091 88.137 159.443 81.585Z" fill="white"/>
<path d="M177.013 76.398L177.91 77.1C177.104 78.218 175.999 79.154 174.595 79.908C173.191 80.636 171.826 81 170.5 81C169.174 81 168.108 80.61 167.302 79.83C166.496 79.05 166.093 78.023 166.093 76.749C166.093 74.357 167.354 72.004 169.876 69.69C172.424 67.376 174.998 66.219 177.598 66.219C179.314 66.219 180.172 66.895 180.172 68.247C180.172 69.651 179.262 71.068 177.442 72.498C175.648 73.928 173.113 75.228 169.837 76.398C170.071 76.996 170.435 77.464 170.929 77.802C171.423 78.14 171.93 78.309 172.45 78.309C173.568 78.309 175.089 77.672 177.013 76.398ZM169.642 75.228C171.748 74.5 173.555 73.59 175.063 72.498C176.571 71.406 177.325 70.405 177.325 69.495C177.325 69.157 177.195 68.858 176.935 68.598C176.675 68.338 176.376 68.208 176.038 68.208C174.816 68.208 173.49 68.975 172.06 70.509C170.656 72.017 169.85 73.59 169.642 75.228Z" fill="white"/>
<path d="M191.866 67.194C192.516 67.194 193.049 67.415 193.465 67.857C193.881 68.299 194.089 68.871 194.089 69.573C194.089 70.977 193.283 72.459 191.671 74.019L190.735 73.278C191.099 72.472 191.281 71.887 191.281 71.523C191.281 70.821 190.891 70.47 190.111 70.47C189.331 70.47 188.59 70.964 187.888 71.952C187.186 72.94 186.354 74.474 185.392 76.554C184.456 78.608 183.741 80.064 183.247 80.922L181.024 79.947C182.454 76.697 183.273 74.786 183.481 74.214C184.183 72.186 184.534 69.612 184.534 66.492L186.718 65.907C186.64 67.597 186.523 68.91 186.367 69.846C186.211 70.756 185.834 72.251 185.236 74.331C187.862 69.573 190.072 67.194 191.866 67.194Z" fill="white"/>
<path d="M166.067 90C159.15 123.121 129.785 148 94.61 148C59.4347 148 30.0701 123.121 23.1526 90H21.1103C28.0593 124.234 58.3256 150 94.61 150C130.894 150 161.161 124.234 168.11 90H166.067Z" fill="white"/>
<path d="M25.3071 52C34.9423 22.9527 62.3293 2 94.61 2C126.891 2 154.278 22.9527 163.913 52H166.018C156.307 21.8302 128.008 0 94.61 0C61.2119 0 32.9125 21.8302 23.2025 52H25.3071Z" fill="white"/>
</svg>
